<?xml version="1.0" standalone="no"?>
<!DOCTYPE svg PUBLIC "-//W3C//DTD SVG 20010904//EN"
 "http://www.w3.org/TR/2001/REC-SVG-20010904/DTD/svg10.dtd">
<svg version="1.0" xmlns="http://www.w3.org/2000/svg"
 width="243.000000pt" height="243.000000pt" viewBox="0 0 243.000000 243.000000"
 preserveAspectRatio="xMidYMid meet">
<metadata>
Created by potrace 1.11, written by Peter Selinger 2001-2013
</metadata>
<g transform="translate(0.000000,243.000000) scale(0.100000,-0.100000)"
fill="#000000" stroke="none">
<path d="M935 2090 c-10 -11 -21 -17 -25 -15 -4 3 -11 -2 -14 -11 -3 -8 -2
-12 4 -9 6 3 10 1 10 -5 0 -6 -6 -13 -14 -16 -9 -3 -12 -12 -9 -22 5 -11 2
-14 -10 -9 -11 4 -14 2 -10 -8 3 -8 9 -13 13 -10 7 4 7 -17 0 -35 -1 -3 -2 -9
-1 -14 1 -5 -4 -4 -12 2 -11 9 -13 8 -12 -8 1 -11 5 -23 10 -27 4 -5 5 -2 0 6
-5 10 -4 12 4 7 6 -4 9 -12 5 -17 -3 -5 -9 -7 -14 -4 -11 7 -22 -24 -13 -38
15 -23 12 -39 -5 -32 -14 5 -15 4 -4 -6 15 -16 16 -49 1 -49 -5 0 -7 4 -4 10
3 6 -1 7 -10 4 -14 -6 -14 -8 2 -21 10 -8 12 -11 4 -7 -10 5 -11 1 -6 -16 5
-17 4 -21 -6 -15 -8 6 -11 4 -7 -7 8 -19 -7 -45 -16 -29 -4 6 -2 11 5 11 7 0
10 2 7 5 -8 8 -38 -6 -38 -17 0 -5 5 -6 10 -3 6 3 10 2 10 -3 0 -17 -13 -22
-29 -10 -11 9 -11 7 2 -8 17 -21 17 -22 0 -29 -10 -5 -21 -8 -25 -7 -4 1 -5
-5 -1 -13 5 -13 7 -13 19 2 7 10 14 13 14 6 0 -6 -9 -18 -20 -26 -11 -8 -17
-17 -13 -20 3 -4 -2 -7 -13 -7 -15 0 -16 -2 -5 -9 8 -5 21 -7 30 -4 12 3 12 2
-2 -7 -9 -6 -22 -8 -29 -4 -8 5 -9 0 -5 -15 5 -19 3 -20 -11 -9 -12 10 -14 10
-8 1 4 -7 3 -13 -1 -13 -5 0 -14 -9 -21 -21 -8 -12 -9 -18 -3 -14 6 3 11 2 11
-3 0 -5 -11 -15 -25 -22 -14 -7 -23 -15 -20 -18 2 -3 11 1 20 8 13 11 14 10 9
-4 -3 -9 -12 -16 -19 -16 -6 0 -20 -10 -31 -22 -10 -12 -14 -18 -8 -15 7 4 17
0 24 -8 11 -13 10 -14 -5 -9 -11 5 -16 4 -12 -3 4 -5 0 -19 -9 -29 -14 -18
-15 -18 -5 3 8 16 7 22 -4 26 -9 4 -12 1 -8 -9 5 -13 -8 -19 -30 -15 -5 1 -6
-3 -2 -9 3 -6 11 -7 17 -4 7 5 8 2 4 -5 -5 -7 -14 -10 -20 -8 -7 3 -13 -1 -13
-8 0 -7 9 -11 21 -8 18 3 17 2 -2 -7 -13 -5 -29 -7 -35 -3 -6 4 -8 0 -4 -10 4
-11 2 -14 -8 -10 -8 3 -12 10 -8 16 4 6 1 7 -6 3 -9 -6 -8 -13 6 -28 18 -20
18 -21 -4 -9 -14 7 -24 8 -28 1 -6 -9 1 -14 17 -11 4 0 5 -6 1 -15 -3 -8 -8
-12 -11 -10 -7 8 -32 -14 -32 -27 0 -6 6 -3 13 8 10 12 16 14 21 7 4 -7 2 -12
-3 -12 -6 0 -11 -5 -11 -11 0 -5 5 -7 12 -3 7 5 8 3 4 -5 -5 -7 -14 -10 -20
-8 -7 3 -13 -1 -13 -9 0 -7 4 -11 8 -8 4 2 11 -1 15 -7 4 -8 3 -9 -4 -5 -7 4
-12 2 -12 -5 0 -9 -3 -9 -14 0 -11 9 -16 9 -22 0 -4 -7 -3 -10 2 -6 5 3 18 -1
29 -9 18 -14 18 -14 -3 -14 -16 0 -20 -4 -15 -17 4 -11 3 -14 -5 -9 -8 4 -10
2 -6 -8 7 -20 -14 -58 -28 -50 -7 4 -8 2 -4 -5 5 -8 12 -9 20 -2 8 6 17 6 26
0 12 -8 11 -9 -5 -7 -14 2 -20 -2 -19 -14 1 -10 -2 -15 -7 -13 -15 10 -27 -28
-16 -53 7 -16 8 -26 1 -30 -15 -10 -45 -74 -31 -65 7 4 6 0 -2 -10 -7 -9 -10
-17 -6 -17 4 0 2 -6 -4 -13 -6 -8 -7 -18 -3 -22 4 -5 1 -4 -7 0 -11 6 -13 4
-8 -9 4 -9 3 -15 -2 -11 -5 3 -11 2 -14 -2 -2 -5 -2 -2 -1 5 2 6 -1 12 -6 12
-9 0 -14 -32 -7 -45 1 -2 -7 -11 -18 -19 -14 -11 -16 -15 -6 -16 11 0 10 -4
-5 -16 -10 -8 -13 -13 -6 -9 19 10 14 -13 -5 -25 -17 -11 -17 -11 1 -6 14 5
17 2 12 -10 -7 -18 -16 -74 -20 -124 -2 -20 -8 -34 -15 -32 -8 1 -7 -4 1 -18
11 -17 10 -22 -1 -29 -11 -7 -11 -9 0 -14 9 -4 10 -8 4 -14 -5 -4 -11 -24 -13
-43 -1 -19 -4 -44 -7 -55 -2 -11 -4 -26 -4 -33 -1 -7 -4 -11 -8 -9 -5 3 -8
-12 -7 -33 0 -22 -3 -37 -7 -34 -10 6 -15 -23 -11 -68 l4 -38 910 0 c613 0
907 3 903 10 -4 6 -10 8 -15 5 -5 -3 -12 0 -16 6 -4 8 -3 9 4 5 18 -11 14 3
-8 26 -11 12 -19 27 -19 32 3 25 -2 37 -11 31 -5 -3 -10 3 -10 14 0 12 -5 21
-11 21 -5 0 -7 5 -4 10 3 6 1 10 -4 10 -6 0 -11 5 -11 11 0 5 5 7 11 3 13 -8
-19 53 -38 74 -7 7 -13 18 -13 24 0 5 -6 24 -14 41 -31 69 -57 167 -55 205 3
47 26 81 57 82 4 0 -2 8 -13 16 -19 15 -19 15 6 9 16 -4 29 -1 36 7 13 17 13
48 -1 48 -5 0 -1 7 10 15 10 8 15 15 10 15 -5 0 -3 7 4 15 8 10 21 13 33 9 17
-5 18 -4 6 9 -8 8 -18 12 -23 9 -6 -3 0 8 12 25 14 19 20 38 15 49 -5 14 -3
16 12 11 15 -6 16 -5 5 8 -10 12 -10 15 1 15 11 0 11 2 -1 10 -11 7 -11 10 -2
10 8 0 10 5 5 13 -4 6 -6 20 -5 29 2 10 -1 18 -5 18 -5 0 -9 27 -9 60 0 50 3
59 16 55 12 -5 13 -4 3 6 -7 7 -13 17 -13 22 0 4 6 5 13 1 9 -6 9 -4 1 7 -13
16 -13 64 0 76 5 4 6 3 2 -4 -3 -6 -2 -15 4 -18 6 -4 9 -1 8 7 -2 7 4 12 12
10 8 -2 11 0 7 5 -5 4 -14 8 -20 8 -6 0 -11 16 -12 35 0 19 3 34 8 33 4 -2 12
-3 18 -3 5 0 8 -4 4 -9 -3 -5 -1 -12 4 -15 15 -10 6 26 -10 38 -8 6 -15 17
-17 25 -2 11 0 12 11 3 11 -10 17 -9 28 5 13 16 12 17 -2 5 -14 -10 -18 -10
-23 4 -3 9 -2 22 4 29 5 6 7 15 3 18 -3 4 -3 7 2 7 4 0 14 -8 22 -17 13 -16
13 -16 4 4 -8 16 -8 23 2 27 6 3 2 3 -10 0 -18 -4 -21 -1 -18 15 2 11 0 23 -6
26 -5 4 -14 15 -20 26 -9 18 -8 19 8 10 21 -11 49 1 39 17 -3 6 -2 13 3 16 5
4 12 -2 14 -11 2 -10 4 -3 3 14 l-1 33 -17 -22 c-9 -12 -14 -27 -11 -32 4 -5
1 -6 -7 -1 -9 6 -11 4 -5 -5 5 -9 4 -11 -3 -6 -14 9 -3 33 26 60 13 11 26 15
34 10 11 -6 11 -5 0 8 -10 13 -10 17 0 21 10 4 8 10 -6 21 -11 9 -14 16 -8 16
24 0 11 16 -14 18 -15 1 -33 7 -40 12 -8 8 -14 8 -19 0 -4 -7 -16 -10 -26 -7
-11 3 -17 2 -15 -2 2 -3 -6 -11 -19 -17 -20 -10 -23 -9 -21 11 2 12 -2 22 -9
22 -7 0 -10 -11 -8 -26 3 -25 3 -25 -6 -3 -6 12 -13 22 -16 22 -4 0 -3 -4 0
-10 6 -9 -17 -4 -40 9 -5 3 -16 6 -24 8 -8 1 -18 8 -22 15 -5 7 -9 9 -9 3 0
-5 -6 -3 -13 5 -7 8 -19 15 -27 15 -8 0 -14 5 -13 10 0 6 -21 11 -49 12 -34 2
-55 8 -65 20 -8 10 -12 12 -8 6 9 -19 -16 -15 -32 5 -8 9 -12 11 -8 5 5 -10 0
-11 -22 -2 -15 5 -34 16 -42 22 -12 10 -13 9 -6 -2 5 -9 4 -12 -2 -8 -5 3 -22
8 -38 11 -16 3 -32 11 -37 18 -4 7 -8 10 -8 6 0 -15 -43 10 -46 26 -1 10 -6
21 -10 24 -4 4 -4 -1 -1 -10 10 -27 -27 -23 -42 5 -6 12 -9 14 -7 4 5 -14 2
-16 -12 -9 -9 5 -25 8 -34 7 -10 -2 -17 0 -17 3 3 20 -2 33 -10 27 -5 -3 -20
9 -33 27 -12 18 -36 44 -52 58 -17 14 -45 40 -63 58 -18 17 -37 32 -43 32 -18
0 -25 2 -41 11 -12 6 -22 3 -34 -11z m-65 -214 c0 -3 -4 -8 -10 -11 -5 -3 -10
-1 -10 4 0 6 5 11 10 11 6 0 10 -2 10 -4z m-67 -221 c-3 -9 -8 -14 -10 -11 -3
3 -2 9 2 15 9 16 15 13 8 -4z m-98 -165 c-3 -5 -11 -10 -16 -10 -6 0 -7 5 -4
10 3 6 11 10 16 10 6 0 7 -4 4 -10z m-60 -90 c-3 -5 -11 -10 -16 -10 -6 0 -7
5 -4 10 3 6 11 10 16 10 6 0 7 -4 4 -10z m-198 -359 c0 -11 -5 -18 -9 -15 -4
3 -5 11 -1 19 7 21 12 19 10 -4z m1428 -321 c-3 -5 -12 -10 -18 -10 -7 0 -6 4
3 10 19 12 23 12 15 0z"/>
<path d="M858 1963 c7 -3 16 -2 19 1 4 3 -2 6 -13 5 -11 0 -14 -3 -6 -6z"/>
<path d="M1186 1941 c-4 -5 -2 -12 3 -15 5 -4 12 -2 15 3 4 5 2 12 -3 15 -5 4
-12 2 -15 -3z"/>
<path d="M1221 1913 c-1 -18 13 -23 29 -11 12 8 12 9 -2 5 -9 -3 -19 -1 -22 6
-3 9 -5 9 -5 0z"/>
<path d="M1350 1861 c0 -5 7 -11 15 -15 8 -3 15 -1 15 3 0 5 -7 11 -15 15 -8
3 -15 1 -15 -3z"/>
<path d="M1401 1838 c5 -10 11 -18 12 -18 2 0 3 8 3 18 0 10 -6 19 -13 19 -8
0 -9 -6 -2 -19z"/>
<path d="M1430 1841 c0 -5 5 -13 10 -16 6 -3 10 -2 10 4 0 5 -4 13 -10 16 -5
3 -10 2 -10 -4z"/>
<path d="M1510 1809 c0 -5 5 -7 10 -4 6 3 10 8 10 11 0 2 -4 4 -10 4 -5 0 -10
-5 -10 -11z"/>
<path d="M1776 1717 c3 -10 9 -15 12 -12 3 3 0 11 -7 18 -10 9 -11 8 -5 -6z"/>
<path d="M1949 1713 c-13 -16 -12 -17 4 -4 9 7 17 15 17 17 0 8 -8 3 -21 -13z"/>
<path d="M1896 1683 c-6 -14 -5 -15 5 -6 7 7 10 15 7 18 -3 3 -9 -2 -12 -12z"/>
<path d="M1990 1496 c4 -4 16 -4 26 2 16 9 14 10 -8 9 -15 -1 -23 -6 -18 -11z"/>
<path d="M1990 1389 c0 -5 5 -7 10 -4 6 3 10 8 10 11 0 2 -4 4 -10 4 -5 0 -10
-5 -10 -11z"/>
<path d="M1963 1018 c7 -10 16 -18 21 -18 4 0 3 6 -3 13 -6 8 -9 16 -6 19 3 2
-1 5 -9 5 -11 0 -12 -4 -3 -19z"/>
<path d="M1937 839 c7 -7 15 -10 18 -7 3 3 -2 9 -12 12 -14 6 -15 5 -6 -5z"/>
<path d="M329 801 c17 -11 -3 -25 -21 -15 -10 5 -10 4 -1 -6 10 -11 15 -11 27
0 17 13 13 30 -7 30 -8 0 -8 -3 2 -9z"/>
<path d="M1909 805 c-1 -3 -3 -9 -4 -15 -1 -5 -3 -11 -5 -12 -8 -10 -6 -39 2
-45 7 -3 8 -1 4 6 -4 6 0 14 9 17 9 4 14 12 11 20 -3 7 0 14 7 17 6 2 4 6 -6
10 -9 3 -18 4 -18 2z"/>
<path d="M1810 645 c-7 -9 -8 -15 -2 -15 5 0 12 7 16 15 3 8 4 15 2 15 -2 0
-9 -7 -16 -15z"/>
</g>
</svg>
